<svg xmlns="http://www.w3.org/2000/svg" viewBox="0 0 587.88 582.06"><defs><style>.cls-1{font-size:135.13px;letter-spacing:0.1em;}.cls-1,.cls-8{fill:#dc3545;}.cls-1,.cls-2{font-family:UpboltersNew, Upbolters New;}.cls-2{font-size:62.66px;letter-spacing:0.2em;}.cls-11,.cls-2{fill:#fff;}.cls-3{letter-spacing:0.16em;}.cls-4{letter-spacing:0.2em;}.cls-5{fill:#8c2333;}.cls-6{fill:#58595b;}.cls-7{fill:#a82a3d;}.cls-9{fill:#aa2b3d;}.cls-10{fill:#d28b29;}</style></defs><g id="Layer_2" data-name="Layer 2"><g id="TEXT"><text class="cls-1" transform="translate(0 490.33)">DUNGEON</text><text class="cls-2" transform="translate(158.43 567.95) scale(0.62 1)">ADVE<tspan class="cls-3" x="177.05" y="0">N</tspan><tspan class="cls-4" x="222.07" y="0">TURER</tspan></text></g><g id="LOGO"><path d="M545.83,155.39c-.15-1.2-.36-2.43-.59-3.68l-.15-.75c-.22-1.07-.46-2.15-.75-3.33l-.09-.35c-.31-1.22-.65-2.46-1-3.68L543,143c-.33-1.06-.68-2.12-1.06-3.21l-.23-.65c-.44-1.23-.9-2.45-1.41-3.74l-.09-.21L532,138.57l8.21-3.6c-.44-1.09-.89-2.17-1.38-3.28l-.33-.76c-1.05-2.37-2.22-4.78-3.46-7.2l-.42-.8c-.56-1.08-1.14-2.15-1.77-3.28l-.11-.21c-.64-1.15-1.3-2.28-1.94-3.36l-.49-.81c-.55-.92-1.12-1.84-1.7-2.75l-.38-.62c-.68-1.06-1.37-2.11-2-3.12l-.46-.66c-.58-.84-1.16-1.67-1.74-2.47l-.51-.71c-.71-1-1.42-1.92-2.12-2.83l-.34-.42c-.62-.8-1.24-1.56-1.89-2.35l-.54-.64c-.73-.87-1.46-1.71-2.19-2.5a9,9,0,0,0-1.42-1.26L513,93.55l-.08-.07A9,9,0,0,0,511.08,89c-6.38-8.19-13-15.9-19.6-22.91-2.14-2.27-4.33-4.5-6.49-6.64a235.68,235.68,0,0,0-19.17-17,189.27,189.27,0,0,0-15.52-11.1c-4-2.55-8-4.9-12-7a135.07,135.07,0,0,0-14.38-6.5l-2.79-1c-2.72-1-5.46-1.8-8.14-2.5s-5.25-1.27-7.8-1.72-5-.76-7.44-.95l-2.41-.15c-.79,0-1.58-.06-2.35-.07h-.87c-2,0-4,.1-5.92.28-1.45.14-2.89.33-4.29.58s-2.77.54-4.08.89c-.67.18-1.33.37-2,.57-1.3.41-2.56.87-3.76,1.38-9.07,3.83-15.36,10.5-17.72,18.77a9,9,0,0,0,5.42,10.83c7,2.66,11,5.45,13.62,8.64L372,53.1l-.77-.09-1.68-.18-.88-.07-1.45-.1-.84,0c-.46,0-.89,0-1.35,0h-.77c-.45,0-.85,0-1.32.06l-.66,0c-.53,0-1,.11-1.42.17s-.93.16-1.41.27-.7.16-1,.23a13.73,13.73,0,0,0-1.31.47c-.31.12-.61.25-.83.36a11.78,11.78,0,0,0-1.8,1.12c-.23.17-.56.45-.77.64a9.74,9.74,0,0,0-2,2.6,10.24,10.24,0,0,0-.56,1.26,9.79,9.79,0,0,0,.41,7.58,10.87,10.87,0,0,0,3.14,3.81c-5.9-1.21-12.34-2.46-18.59-3.58-4.75-.85-9-1.56-12.27-2.06a9.92,9.92,0,0,0-1.33-.1l-.45,0a8.62,8.62,0,0,0-2.76.59,36.92,36.92,0,0,0-5.3-6.88,8.91,8.91,0,0,0-6.31-2.6,8.78,8.78,0,0,0-2.22.29c-6.19-13.43-18.1-34.7-44.21-45l-1-.38-2.15-.81C249.4,7.5,241.72,6,234.05,6a63.65,63.65,0,0,0-11.61,1.11A9,9,0,0,0,219,8.55c-1.83-.85-3.65-1.64-5.42-2.35-.93-.38-1.83-.73-2.71-1.06-2.54-.95-5.06-1.78-7.5-2.47-.79-.22-1.55-.43-2.29-.61A62.09,62.09,0,0,0,186,0h-.54A34.8,34.8,0,0,0,181,.33l-.46.07a75.7,75.7,0,0,0-7.88,1c-1.4.26-2.8.56-4.21.9a104.91,104.91,0,0,0-16.9,5.71c-11.29,4.83-24.07,12.16-40.22,23.06-.5.33-1,.66-1.41,1l-.38.29c-.34.26-.68.51-1,.74l-.44.37c-.32.28-.64.56-1,.85-.13.13-.26.25-.4.41s-.44.44-.57.58-.36.42-.52.63-.18.23-.26.33a12.55,12.55,0,0,0-1,1.42l-.21.36c-.18.33-.37.72-.51,1a11,11,0,0,0-.45,1.34l-.14.51a11.45,11.45,0,0,0-.3,2.34v.18a8.11,8.11,0,0,0,0,1.31,10,10,0,0,0,.44,2.06l.12.38A12.47,12.47,0,0,0,104.85,50a16.91,16.91,0,0,0,4.54,4.45l.08.05c.34.24.68.47,1,.7.14.1.62.38.63.39.49.3,1,.6,1.6.94l.26.14c.5.28,1,.56,1.72.92.84.44,1.72.88,2.7,1.36q2,1,4.33,2.05,3.85,1.78,8.9,4c3.6,1.63,7.67,3.46,12.24,5.56C150,73.82,156.72,77,163.4,80.23l-1.6,4c-.79,2-1.59,4-2.36,6q-.74,1.93-1.44,3.93c-1.06,3-1.93,5.75-2.64,8.42a85.28,85.28,0,0,0-2,9.35c0,.19,0,.38-.07.57-1.49,17,2.58,28.92,7.41,36.81a8.94,8.94,0,0,0-2.59,2.18c-3.36,4.15-17.06,14.11-31,14.11a27.77,27.77,0,0,1-6-.63,26.64,26.64,0,0,1-4.68-1.52,9,9,0,0,0-12.5,7.71c-.57-.65-1.14-1.29-1.69-2a80,80,0,0,1-7-10,9,9,0,0,0-16.69,4.72c.74,37,29.7,63.93,68.87,63.94h0l.61,0c-.25.35-.51.71-.75,1.07s-.44.68-.66,1-.49.81-.74,1.25-.38.68-.56,1-.46.91-.75,1.51c-.13.29-.27.57-.41.88-.23.53-.47,1.09-.68,1.62l-.36.87c-.32.84-.63,1.71-.94,2.63l-.87,2.64c-.71,2.15-1.35,4.08-2,5.92-.28.77-.57,1.53-.86,2.29a66.41,66.41,0,0,1-3,6.59c-.33.65-.69,1.32-1.06,2-2.41,4.39-5.89,9.86-11,17.2a8.9,8.9,0,0,0-.26,9.66c-.5.36-1,.73-1.52,1.13l-.93.73c-1.54,1.22-2.81,2.3-4,3.38l-.34.31c-3.2,2.91-6.19,5.62-9,8.11-1.42,1.26-2.81,2.45-4.17,3.59-2.11,1.78-4,3.27-5.73,4.57-1.24.92-2.39,1.73-3.51,2.47s-2.25,1.42-3.31,2a33.44,33.44,0,0,1-6.18,2.72,26.24,26.24,0,0,1-4.59,1c-.53.07-1.06.13-1.6.17-.74.06-1.48.08-2.24.08-6,0-13.21-1.77-22.18-5.41a8.83,8.83,0,0,0-3.37-.66,9,9,0,0,0-8.24,12.49C51.9,345,70.29,358.24,91.56,358.24A52,52,0,0,0,97,358l-1.13.48-1.25.48-1.1.4-1.24.4-.9.27c-.38.11-.77.22-1.25.34l-.69.18-.29.06c-.5.12-1,.23-1.48.32l-.87.16-1.26.2-.9.11c-.46.06-.92.1-1.45.14l-.84.06-1.47.06H79.76l-1.31,0-.83,0c-.67-.05-1.34-.1-2-.18l-.81-.12c-.52-.07-1-.15-1.57-.24l-.86-.18c-.51-.1-1-.21-1.52-.34-.31-.07-.61-.15-.92-.24-.51-.14-1-.29-1.69-.5l-.75-.24c-.56-.19-1.11-.4-1.71-.63l-.77-.3c-.84-.34-1.67-.7-2.51-1.11a9,9,0,0,0-9.84,14.78,74.62,74.62,0,0,0,48.71,18.84c22.59,0,42.59-11.13,57.3-31.64A35.4,35.4,0,0,0,175.86,364c21.28,0,36.14-20.18,38.24-23.19a9,9,0,0,0,3.55-1,167.18,167.18,0,0,1,20.46-9,9,9,0,0,0,1.22-.57,8.92,8.92,0,0,0,3.49-.89,49.87,49.87,0,0,1,9.86-3.18c.49,14.17,11.88,21.82,22.49,21.82a15.29,15.29,0,0,0,5.5-.93,8.93,8.93,0,0,0,5.6-6.62,28.61,28.61,0,0,0,7.36-4.08,19.18,19.18,0,0,0,6.92,1.57,75.25,75.25,0,0,0-.37,8.05,67.37,67.37,0,0,1-14.26,5.64,9,9,0,0,0-5.5,13.13c.8,1.4,1.61,2.74,2.44,4.07l.8,1.24c.58.89,1.15,1.77,1.74,2.62l1,1.4c.56.79,1.12,1.56,1.73,2.37l1,1.29c.59.77,1.19,1.51,1.79,2.24l1,1.18c.75.89,1.51,1.75,2.37,2.7.16.18.31.36.45.5,1,1,1.93,2,2.93,3l.8.77c.73.69,1.46,1.37,2.17,2,.31.29.63.56.95.83l.18.16c.66.57,1.32,1.13,2,1.66l1.2.95c.68.53,1.36,1,2.05,1.54l1.16.84c.78.54,1.57,1.06,2.37,1.59,0,0,.67.44.89.57,1.09.69,2.2,1.34,3.3,1.95l.67.36c.9.49,1.81,1,2.71,1.41l1,.46.23.1c.75.36,1.51.7,2.26,1l1.31.54c.75.31,1.5.59,2.26.87.43.16.86.32,1.31.47.8.28,1.61.54,2.42.78l1.14.35a77.65,77.65,0,0,0,21.48,2.95h0c33.54,0,72.84-20.55,107.74-56.29l.14-.15c2-2,4-4.13,5.95-6.29l.14-.15q2.88-3.14,5.73-6.46l.15-.17c1.93-2.25,3.82-4.52,5.62-6.76,12.89-16,21.92-33.28,26.85-51.38a121,121,0,0,0,2.89-13.65c.18-1.13.33-2.26.47-3.37.27-2.22.49-4.47.63-6.71.08-1.1.13-2.2.17-3.3A110.2,110.2,0,0,0,504.74,224c-.3-1.18-.61-2.36-.94-3.51-.28-1-.57-1.94-.88-2.9A92.39,92.39,0,0,0,483,182.84l-.18-.18c10.78,3.81,22.73,5.94,32,5.94h0c12.19,0,20.91-3.21,25.9-9.55C545.39,173.25,547.08,165.29,545.83,155.39ZM436,70.22c9.38,6.61,16.68,12,22.95,16.93l2.83,2.24a188.45,188.45,0,0,1,25.47,24.21,163.78,163.78,0,0,1,13,17.44c.59.9,1.15,1.79,1.69,2.66,1,1.69,2,3.35,2.94,4.94s1.64,3,2.33,4.38a49.6,49.6,0,0,1,2.94,7,48.23,48.23,0,0,1-7.25-3.32c-1.95-1.06-3.93-2.21-5.85-3.41-.63-.39-1.25-.79-1.87-1.19a130.77,130.77,0,0,1-11.64-8.55,123.89,123.89,0,0,1-16.07-15.66,9,9,0,0,0-7-3.34c-.3,0-.61,0-.91.05a26.67,26.67,0,0,0-11.62-6,9,9,0,0,0,.16-7.89c-.05-.1-.11-.2-.17-.3a8.94,8.94,0,0,0,.81-6.08,25.41,25.41,0,0,0-4.13-9.43,18.51,18.51,0,0,0-4.94-10.17,19,19,0,0,0-7-4.58,8.72,8.72,0,0,0-2-2.13,25.76,25.76,0,0,0-11.42-4.47c-1.49-.24-3.08-.41-4.71-.51-1,0-2-.08-3-.08-1.36,0-2.75,0-4.15.15-.94.07-1.86.21-2.78.32-.56-.76-1.3-1.81-2.11-3-.47-.71-1-1.48-1.45-2.28a34.26,34.26,0,0,1-2.82-5.47,8,8,0,0,1-.35-1.11,42.77,42.77,0,0,0-1.41-5.45,21.14,21.14,0,0,1,7.4-1c1.1,0,2.24.07,3.4.15a9,9,0,0,0,3.87,7.81C419.37,58.67,428.08,64.64,436,70.22Zm-42.84,31.63a9,9,0,0,0,8.9,7.93h.25c.28,0,.55-.07.82-.1.48.28.93.57,1.44.84,2.36,4.92,5.85,7.42,10.37,7.42a11.06,11.06,0,0,0,2.35-.26l.1,0c4,9.34,10.13,11.43,14.85,11.43.25,0,.51,0,.77-.05,0,.11.05.2.08.32.08.37.16.74.23,1.08l.53,2.53c.26,1.2.49,2.13.77,3a18.59,18.59,0,0,0,1.47,3.57,16,16,0,0,0,1.25,2,13.9,13.9,0,0,0,2.65,2.66,13.51,13.51,0,0,0,3.89,2.14,16.28,16.28,0,0,0,5.46,1,19.17,19.17,0,0,0,5.17-.78l.22.17c1.89,1.47,3.89,3.09,5.81,4.68a9,9,0,0,0-4.74,11,16.19,16.19,0,0,0,1.09,2.46c-.59-.23-1.17-.48-1.77-.69a59.75,59.75,0,0,0-6-1.79,67.71,67.71,0,0,0-15.73-1.81c-11.15,0-23.29,2.54-36.08,7.56-1.66.65-3.32,1.34-5,2a187.18,187.18,0,0,0-23.74,12.61q-2.26,1.41-4.46,2.85c-5.51,3.61-11.12,7.62-16.65,11.91a247.67,247.67,0,0,0-31.85,29,9,9,0,0,0-1.44,9.74,8.52,8.52,0,0,0,1.26,2c-.24.16-.49.3-.72.47a23.47,23.47,0,0,0-6.72,7.53c-.51.28-1,.55-1.43.82a24.62,24.62,0,0,0-3.45,2.44c-4.45,3.84-4.72,8.07-4.48,10.27a10.87,10.87,0,0,0,.69,2.72l-.72,0a20.92,20.92,0,0,0-2.86.19,22.57,22.57,0,0,0-3.27.67c-.55.16-1.1.34-1.66.54s-1.24.5-1.89.82a61.19,61.19,0,0,1,8-14.49,9,9,0,0,0-.17-11.46,8.8,8.8,0,0,0-2.94-2.23c2.44-3.05,4.95-6.08,7.31-8.73a8.78,8.78,0,0,0,1.87-3.42,15.72,15.72,0,0,0,1.66.1c10.88,0,13.45-10,15.15-16.65.47-1.87,1-4,1.7-6.24a8.77,8.77,0,0,0,.33-3.62c7.5-7.36,11.48-19.05,9.57-31.4a40,40,0,0,0-3.16-10.46c0-.05.06-.1.09-.16a45.65,45.65,0,0,0,3.58-12.81A105.74,105.74,0,0,0,333,127.78c0-4.37-.17-8.93-.55-13.55-.09-1.16-.2-2.32-.32-3.48-.08-.74-.17-1.56-.27-2.43a2.64,2.64,0,0,0,.28,0c1.55-.24,15.4-2.49,24-5.81a8.94,8.94,0,0,0,2.2-1.23c.58,0,1.36,0,2.35,0a216.44,216.44,0,0,0,23.19-1.55,9,9,0,0,0,6.64-4.25A19.47,19.47,0,0,1,393.17,101.85Zm14.19,240.89c-12.54,7.42-23,11.18-31.08,11.18-5.56,0-9.78-1.87-13-5.81a8.87,8.87,0,0,0,1.34-5.05,9,9,0,0,0-7.86-8.58,28.39,28.39,0,0,0-3.51-.15c-2.71,0-8,.18-14.23.71a36.13,36.13,0,0,0,5.54-14,9,9,0,0,0-3.9-8.82A14.67,14.67,0,0,0,337,310.5a9.09,9.09,0,0,0,1.21-1.42A12,12,0,0,0,349,301a16.28,16.28,0,0,0,.31-9.73c.1-.22.18-.45.26-.67a13.89,13.89,0,0,0,2.73-.45A9,9,0,0,0,358.88,280a51.25,51.25,0,0,0-5.17-15.3,21.48,21.48,0,0,0,7.42-3,9.78,9.78,0,0,0,1.92-1.82,9,9,0,0,0,4.47-15.49l-.17-.18-.88-.92a98.53,98.53,0,0,1,25.78-11.81,9,9,0,0,0,6.33-7.52,9.72,9.72,0,0,0,.06-1.32,8.92,8.92,0,0,0,5.13-4.9c3.79-8.93,9.56-13.46,17.16-13.46,8.42,0,17.9,5.48,25.34,14.67.5.61,1,1.23,1.46,1.86l.66.93c.43.6.85,1.22,1.28,1.87.22.34.44.7.66,1.06.39.62.76,1.25,1.12,1.89q.35.59.66,1.2c.35.64.68,1.29,1,1.94.21.44.42.87.62,1.3.31.67.61,1.36.9,2.05l.14.33.42,1c.28.72.53,1.46.79,2.21,0,0,.39,1.08.47,1.33.27.83.5,1.67.74,2.52,0,0,.29,1,.34,1.22.35,1.33.63,2.59.87,3.85C466.43,287.1,438.55,324.31,407.36,342.74Z"/><path class="cls-5" d="M258.07,20.24c-14.65-5.81-24.38-6.07-34-4.31C234.58,21.48,240.86,32,240.86,32,202.6,4.35,181.69,9.31,181.69,9.31c-19.54,1.33-40.29,12.33-65.33,29.22-12.41,8.38-.64,8.52,52,34.16C175,60.05,178.11,48,178.23,50.1c1.42,25.65-12.42,39.82-16,63.22-2.52,28.8,12.79,45.74,31.81,47.32-6.11,2.14-15.64,3.52-29-3.48-5.77,7.12-29.84,24.21-52.17,14.55,3.51,8,14.32,17.63,32.53,19.38,20,1.93,42.17-10,52.63-14.46s43.26-16.78,80.32.87c-16.5-29.32-48-32.78-62.77-55-12.48-18.8,14.57-21.41,18.7-54,.08-7.25,7-13.16,24-4.44,21.66,12,11-15.85,21.09-12.33,7.93,3.16,18.68,18.59,20.62,28.88,3,16.17-.4,23.68-.4,23.68,4.36-12.21,5.11-26.83.18-38.07S284.8,30.79,258.07,20.24Z"/><path class="cls-5" d="M176.1,269.8c7-13.71,16.35-28.06,27.19-37.78s-9.06-9.21-26.8-8.12c-14.46.88-21.26,5.35-25.69,18.66s-5.45,18-19.83,38.91C146.92,274,168.46,266.06,176.1,269.8Z"/><path class="cls-6" d="M398.39,70.15a97.26,97.26,0,0,0-10.31-5C384.92,54.39,383,43.91,363,36.29,370.33,10.6,435.89,7,504,94.46,490.87,82,485.28,76.71,485.28,76.71,493.68,87,494,90.13,494,90.13,478.5,72.91,467.3,59.86,443.3,47.24s-47.16-13.72-54-7.12c-6.23-4.3-11.84-5.63-15.71-4.5,11.78,4.47,14.22,11.28,15.48,17.68S398.39,70.15,398.39,70.15Z"/><path class="cls-6" d="M438,109.57c-2.46,1.51-2.6,5.57,1.42,11.6s2,14.8,7.45,16.71,7-3.25,13.38,1.73,15.33,12.6,17.18,14.7,12.41,11.95-13.14,5.2c4.85,14.25,57.95,28.64,69.49,14s-7.92-53.58-24-71.26a116.89,116.89,0,0,1-9.64-7.59,98.94,98.94,0,0,1,4.49,10.86c-20.21-19.75-44.34-39.29-88.4-59.87,49.12,33.49,71.7,49.88,91.56,80.51s14.16,41.09-9.15,28.44a139.56,139.56,0,0,1-38.14-31.06c1.25,6.17,9.46,17.41,9.46,17.41-9-5.77-11.58-9.33-13.88-15.91s-11.51-8-11.51-8a20.76,20.76,0,0,1,.61,11.75C443.23,118.89,435.41,115.25,438,109.57Z"/><path class="cls-6" d="M332.75,239.3l.87-5.51a45.55,45.55,0,0,0-11.32-1.25c17.08-19.1,77.4-72.8,124.71-61.45s77.22,89.11,22.89,156.52S331.16,435,288.19,360.23a73.39,73.39,0,0,0,21.24-9.4c-2-17.39,6.72-41.65,7.68-43.5s6.31-4.81,13.72-3.38c-9.54,3.64-13.82,14.91-14,20.36,6.3-7.59,16.44-6.27,18.92-4.62-1.8,11.8-13.4,21.22-17.29,23.64-4.71-5.06-3.36-13.17-3.36-13.17a70.7,70.7,0,0,0-1.13,18.4c13.61-4.64,38.44-5.59,41.75-5.18-26.19,5.17-41.69,10.9-47.57,18,5,10.71,20.52,12.18,20.52,12.18-9.78-11.09,23.89-25.78,23.89-25.78,7.38,15,24,23.63,59.4,2.72s64-61.46,55.27-106.67-55.95-66.72-71.68-29.6c-13.2-2.87-39-.45-54.62,9,22.65-6.67,38.29-6.46,48.78-.33-23.95,7.16-36.51,19.24-36.51,19.24C346,238.87,335.67,238.93,332.75,239.3Z"/><path class="cls-7" d="M305,137.88c15.65-32.82,2.73-72.32,2.73-72.32,15.48,15.4,20.46,69.9,12.48,86.51A23.55,23.55,0,0,0,305,137.88Z"/><path class="cls-7" d="M312.92,199c-9.46,3.52-20.83,4.49-31.5-11.88C259,175.18,228.92,170.6,179.93,192c-23.16,10.53-66.3,16-92.3-28.26.72,36.43,32.88,63.26,79.5,52.91,25.13-5.59,73.78-32.72,129.15-3.89C310.23,219.69,308.63,213,312.92,199Z"/><path class="cls-5" d="M200,293.1c-12.73-15.89-50.11-19.67-77.08,4.82S84.38,333,50.62,319.24c16.69,38.91,62.21,42.66,92.42-4.43-13.86-11.39-4.86-18.89,2.75-19.33-7.47,3.72-6.68,9.35-4.35,11.91s9,5.36,16.52,1.36c-14.47,7.74-25.18,20-29.85,32.5s-35.18,40.84-69.47,24.28c25.16,22.27,71.75,28.16,98.88-21-11.48-7.26,1.83-27.41,20.66-33.11,8.25-1.85,8.85-5.6,6.35-11.68,10.24,6.47,6.84,10.17,6.84,10.17-14.05,5.92-26.23,19.64-29.81,40.83,24.92,15.32,45.31-15.25,45.31-15.25-6.29-12.6,3.24-33.28,39.79-40.92-28.19,13.53-38.13,25.84-33.2,37.3a172.85,172.85,0,0,1,21.72-9.58c-5.86-13-.16-17.91,24.32-27.06.36-2-4.12-2.88-10.32-2.61-13.82-8.07-34.28-13.08-42.08,5.83a5.91,5.91,0,0,1,.81-4.67C203.76,294.53,202.4,295.72,200,293.1Z"/><path class="cls-5" d="M238.86,321.24c-2.79-7.33-4.1-16.59,25-24.11a4.77,4.77,0,0,0-2.53-4.35c7.91.32,10.52.69,12.12.69s-3.13,7-3.26,13.47,0,9.39,0,9.39C253.32,314.13,238.86,321.24,238.86,321.24Z"/><path class="cls-5" d="M309.89,277.23c-4.74-6.59-18-11-27.8,6.78s.87,48.58-20.47,41.52c.23,12.27,12.41,14.41,15.86,13.1-7.11-3.1-8.19-6.26-8.19-6.26,8.79,2.32,17.25.21,23.38-7.69a11.37,11.37,0,0,0,8.29,4.25c-8.7-9.52-11.37-19.75-9.56-27,2.2,10.28,6.21,19.49,12,23.08s6.85-6.32,6.85-6.32c-9.83-4.4-11.68-9.25-12.76-14,6.22,7.88,9.38,7.42,10.62,7.44-4.86-13.71-4.83-22.37-3.9-25.44a14.4,14.4,0,0,0-6.75,12.09c-1.26-10.76,4.61-16.09,9.28-17.13S309.89,277.23,309.89,277.23Z"/><path class="cls-5" d="M297.14,102c1,19.71-13.47,39.74-19.7,46.64-8.16,9-45.44-16.38-54.16-30.07-3.83-4.88,1.4-6.3,7.76-5s31.84,2.14,41.33-13.72c3-4.5,5-3.24,9.65,1A12.65,12.65,0,0,0,297.14,102Z"/><path class="cls-8" d="M315.37,306.42c-6.46-1.89-8.88-4.58-6.27-8.44s-8-11.14-.41-15.41c3.76-3,3.7-2.43,3.06-4.59s.63-4.41,3.24-7.54,1.84-4.41-2.84-7.44-8.4-4.79,2.44-10c3.08-6.48,6.85-8.91,12.4-8.93s6.05,1.28,18.12.87,15,4.92,16.41,6.1c-6.24-3.06-9.44-3.69-11.44-3.42,3.29,3.44,7.26,5.75,5.81,6.8s-7.29,2.9-10.31,1.46c-10.85-.31-12.81,1.16-17,2.37a9.09,9.09,0,0,0-5.73,4.7c7.28-4.41,14.69-2.75,20,2.09S350,281.44,350,281.44c-5.38,1.43-12.2-6.09-15.38-8.59s-4.9-5.41-10.83-2.16c-5.49,3.08-1,2.49,1.67,1.46s8.05,2,11.63,7.17,5.92,10.18,2.06,8.4-11.64-6-18.2-4.09c-4.62,1.51-1.33,1.37,2.06,1.19s12.81,3.62,16.34,6.59c2.5,2.11,2.26,9.16-2.1,8.73s-15.44-1.28-21.85,1.66C312.64,303.23,315.37,306.42,315.37,306.42Z"/><path class="cls-8" d="M420.06,80.17c2.72-4.44,16.31-3.07,15.8,8.74,2.75,1.33,4.11,7.41,4.11,7.41-3.26-4.33-7.24-5.86-10.78-5.68s-.74-4.2,4.1-2.72C432.7,83.27,428.26,77.9,420.06,80.17Z"/><path class="cls-8" d="M404.58,97.39c4.72.79,8.88,4.13,9.79,6.59,2.95-4.83,4.28-9.23,7.43-5.32s5.21,9.6,5.25,11.34c2.49-7.67,10.38-10.86,12.91-5.44-2.37-.66-5.82,1.34-7.61,5.16s3.35,9.53,3.35,9.53c-4.48,2.06-8.36.78-11-7.66-1.47-5-6.93-3.2-9.32-2.68s-2.59-3-4.15-4.76S404,101.58,404.58,97.39Z"/><path class="cls-5" d="M221.16,207.81c7.58-2.15,11-1.6,11-1.6,4.71,8,9.43,16.89,9.43,16.89,15.22,2.5,26.9,13.25,30.57,18.47,9.85-14.4,22.27-19.73,22.27-19.73-9.92,11.16-22.1,28.26-22.1,28.26-9.58-9.83-23-16.68-38.09-19.68C227.45,214.1,221.16,207.81,221.16,207.81Z"/><path class="cls-5" d="M208.54,246.14c7.93-2.34,10.94,3.37,10.94,3.37,13.61-3.13,37.35,4.79,52.7,21.64,2.74-13.34,11.41-22.88,17.75-26.56-7.16,8.88-14.41,27.35-14.58,37.16-20.13-17.66-41.81-25.16-55.19-22.06-7.19-4.33-12.56-5.09-12.56-5.09C207.43,252.93,206.79,246.54,208.54,246.14Z"/><path class="cls-8" d="M299.87,66.17c-4.94-11.24-16-35.75-42.75-46.3-13.93-5.41-23.43-5.7-33.06-3.94a36.75,36.75,0,0,1,4.23,2.64l0,0C241,17.6,256.35,23.77,268.11,32s21.45,19,16.65,17.86-7-6.91-12.25,3.8c-2.11,4.16-6.47,0-12.08-5.27A187.18,187.18,0,0,0,240.86,32C202.6,4.35,181.69,9.31,181.69,9.31c-19.54,1.33-40.29,12.33-65.33,29.22-12.41,8.38-.64,8.52,52,34.16-21.76-15.88-38.32-30.25-38.32-30.25,21-11.63,40-25.45,62.29-25.74-15.8,5.9-27.76,14-32.19,24.12,13.11-9.59,37.41-17.63,48.68-16.08,11,28.29,11.76,42.68,1.08,62.79s-10.83,34.76,4.32,45.64S244.36,163,244.36,163c-29,.25-47.1,7.85-56.31,13s-41.9,21.89-70.71-.44c19.56,5.33,49.59,10,76.71-15-6.11,2.14-15.64,3.52-29-3.48-5.77,7.12-29.84,24.21-52.17,14.55,3.51,8,14.32,17.63,32.53,19.38,20,1.93,42.17-10,52.63-14.46s43.26-16.78,80.32.87c-16.5-29.32-48-32.78-62.77-55-12.32-18.56,13.87-21.37,18.51-52.81.48-8.44-3.85-16.34,6.36-17.05,12.1-.84,24.13,14.49,28.46,14.16l0,0c7.21-2.12,2.78-17.81,10.52-15.12,7.93,3.16,18.68,18.59,20.62,28.88,2.23,11.88,1,19.07.15,22.06C304.09,90.75,304.58,76.92,299.87,66.17Z"/><path class="cls-9" d="M172.34,96c8-21.06,9.7-35,5.89-45.87,1.42,25.65-12.42,39.82-16,63.22-2.52,28.8,12.79,45.74,31.81,47.32C167,142.14,164.3,117.2,172.34,96Z"/><ellipse class="cls-8" cx="304.47" cy="169.98" rx="14.04" ry="16.2" transform="translate(-22.42 48.58) rotate(-8.8)"/><path class="cls-8" d="M330.7,99.45c-1.2-12-8.45-25-8.11-25,14.31,2.14,50.73,9.14,56.33,12.32C374,80.9,368.2,80.62,365.82,75s-2.41-6.46-2.41-6.46c8.2,2.11,20.1,6.58,25.68,16.11a50,50,0,0,0-11.26-7.74c6.08,10.2,5,14,5,14-17.81,2-25.12,1.42-25.12,1.42-6.19-8-20.51-10-20.51-10,11.53,6.1,15.64,11.89,15.64,11.89C344.91,97.2,330.7,99.45,330.7,99.45Z"/><path class="cls-8" d="M402.07,100.81c-.84-7.23-11.84-27.69-37.16-34.58-9.75-3-5.64-6.17,8.34-3.9S397.1,74.26,397.1,74.26c8.17-3,22.24-3.47,28.13,1-7.32-.77-16.87,4.35-19.82,9.82-6-5.82-10.58-10-18.19-12C398.79,82.15,402.5,93.62,402.07,100.81Z"/><path class="cls-8" d="M249.18,292.61c-13.82-8.07-34.28-13.08-42.08,5.83a5.91,5.91,0,0,1,.81-4.67c-4.15.76-5.51,2-7.94-.67-12.73-15.89-50.11-19.67-77.08,4.82S84.38,333,50.62,319.24c26.78,27.47,52.14,26.3,82.4-4.47-8.69-10.48,2.43-23.74,14.56-20.59-5,5.72-6.16,15.51,18.24,12.68-13.94,8.34-24.14,13.92-39.53,38-.47.78-1,1.59-1.62,2.41l-.08.12h0C114.63,361,88,379.73,58.64,365.53c24.18,13.66,63.9,20.21,91.19-18.35-9.07-17.29,12.2-34.55,22.86-37.13s13.12-9.7,9.84-13.14c10.59,5.1,14.62,10,8.84,13-1.86.94-5,2.71-8.31,4.62-8.76,6.13-16,15.76-19.81,28.8,12.24,4.22,27.91-5.63,35.48-11.21-3.17-12.69,13-38.42,47.93-37.55-22.61,10.85-33.47,20.91-34.34,30.39,6.53-3,16.36-7.33,17.93-7.83-1.15-7.62,5.75-17.63,29.25-21.9C259.86,293.23,255.38,292.34,249.18,292.61Z"/><path class="cls-8" d="M270.85,293.32h0c-1.85-.13-4.69-.34-9.5-.54a4.77,4.77,0,0,1,2.53,4.35c-20.9,5.4-26.13,11.69-26.38,17.53C255.42,310.24,267.49,309.92,270.85,293.32Z"/><path class="cls-8" d="M282.09,284c-9.76,17.8.87,48.58-20.47,41.52,9.47,7.25,20.33,2.13,22.11-12.63s6.3-42.37,25.54-32.44h0a2.93,2.93,0,0,0,.62-3.23C305.15,270.64,291.85,266.21,282.09,284Z"/><path class="cls-8" d="M290,82c2.87-6.68-7-24.95-7-24.95l-3.59-1.9s9.26,16.08,8.89,23.3c-.25,4.88-2.48,6.75-9.89,10.66C282.63,88.09,288,85.88,290,82Z"/><path class="cls-8" d="M247.84,89.87c10.39,2.92,24.78,3.52,24.64-5.29-.33-4.63-3.93-4.49-4.28-.59C267.6,90.86,253.86,89.72,247.84,89.87Z"/><path class="cls-8" d="M282,100.77c-4.68-4.21-6.68-5.47-9.65-1-9.49,15.86-35,15-41.33,13.72s-11.59.14-7.76,5c8.72,13.69,46,39.11,54.16,30.07,6.23-6.9,20.73-26.93,19.7-46.64A12.65,12.65,0,0,1,282,100.77Zm-4.47,44.32c-3.93,5.33-20.26,1.87-40.35-16,24.4,16,37.24,17.9,38.92,10.34,1.43-6.42,2.76-27.49,2.35-38.17,5.43,7.27,13.44,6.76,16.07,5.14A83.89,83.89,0,0,1,277.55,145.09Z"/><path class="cls-8" d="M165.94,206.48c36.14-10.95,73.94-35,126.8-8l0,0c-3.8-2.11-7.61-5.68-11.35-11.41C259,175.18,228.92,170.6,179.93,192c-23.16,10.53-66.3,16-92.3-28.26C99.08,197.1,134,216.14,165.94,206.48Z"/><path class="cls-10" d="M314.62,143.56a23.69,23.69,0,0,1,5.62,8.51c8-16.61,3-71.11-12.48-86.51C319.57,87.24,320.83,119.69,314.62,143.56Z"/><path class="cls-8" d="M314.62,143.56a23.69,23.69,0,0,1,5.62,8.51c8-16.61,3-71.11-12.48-86.51C319.57,87.24,320.83,119.69,314.62,143.56Z"/><ellipse class="cls-11" cx="306.21" cy="169.53" rx="10.4" ry="12" transform="matrix(0.99, -0.15, 0.15, 0.99, -22.33, 48.85)"/><path class="cls-11" d="M369.62,76.35a16.08,16.08,0,0,1-1.47-6.45c-1.66-.55-3.26-1-4.74-1.39,0,0,0,.8,2.41,6.46s8.17,5.93,13.1,11.8c-5.6-3.18-42-10.18-56.33-12.32a46.05,46.05,0,0,0,1.88,4.26h0c9.32-.92,55.89,9.89,55.89,9.89C379.64,83.49,371.12,79.38,369.62,76.35Z"/><path class="cls-11" d="M425.23,75.22c-5.89-4.43-20-3.93-28.13-1,0,0-9.86-9.65-23.85-11.93-11.95-1.94-16.65.13-11.69,2.62,4-2.26,29.81,4.38,36.83,12.23A37.29,37.29,0,0,1,425.23,75.22Z"/><path class="cls-11" d="M113.77,311.11C135.52,289.39,164.89,277,188,284.38c-17.09-7.43-44.21-5.42-65.09,13.54-27,24.49-38.51,35.05-72.27,21.32C69.23,333.78,92,332.84,113.77,311.11Z"/><path class="cls-11" d="M126.29,344.88c-.47.78-1,1.59-1.62,2.41l-.08.12h0C116.21,358.81,96.07,373.88,72.4,370c21.48,5.74,41.89,4,62.92-26.13,18.07-25.91,25.84-33.65,28.84-36C151.06,315.67,141.06,321.75,126.29,344.88Z"/><path class="cls-11" d="M249.18,292.61c-13.82-8.07-34.28-13.08-42.08,5.83-2.43,5.34-2.69,8-2.69,8,7.54-15,21-23.53,44.24-12.25,2.78.54,8.58-1.75,10.85,1C259.86,293.23,255.38,292.34,249.18,292.61Z"/><path class="cls-11" d="M278.54,311.43c1.65-16.75,8.82-47.3,31.56-32.58h0a3.27,3.27,0,0,0-.21-1.62c-4.74-6.59-18-11-27.8,6.78s.87,48.58-20.47,41.52C271.33,331.51,277.21,325,278.54,311.43Z"/><path class="cls-11" d="M328.78,244.08l.55,0Z"/><path class="cls-11" d="M311.08,291.42c-3.19-8.34.3-8,3.36-9.44s-.4-5.45,2.46-8.65,6.11-6.36,1.62-10.41-4.7-7.81-1.06-10.16c3.38-2.17,3.44-8.46,9.73-8.72H327c-5.55,0-9.32,2.45-12.4,8.93-10.84,5.25-7.12,7-2.44,10s5.45,4.32,2.84,7.44-3.88,5.37-3.24,7.54.7,1.58-3.06,4.59c-7.55,4.27,3,11.54.41,15.41s-.19,6.55,6.27,8.44C308.62,302,314.27,299.75,311.08,291.42Z"/><path class="cls-11" d="M264.35,94.88c-9.49.32-27.33-6.55-23.57-1.32s14.2,7,20.37,5.4S266,94.89,264.35,94.88Z"/><path class="cls-11" d="M280.59,91.11c4.93-2.4,9.4-6.74,10.92-5,1.22,1.37-4.22,6.56-8.47,7.85S277.23,92.8,280.59,91.11Z"/><path class="cls-11" d="M171,224.48c-10.75,1.7-16.36,6.6-20.18,18.08-4.43,13.3-5.45,18-19.83,38.91,4.18-2,8.75-3.94,13.34-5.74C156.18,253.87,156.32,230.26,171,224.48Z"/><path class="cls-11" d="M120.68,50.52c-6.49-7.31,1-11.74,15.23-20.85,14.64-9.35,50.44-28.45,86.38-9.4-26.4-14.31-40.6-11-40.6-11-19.54,1.33-40.29,12.33-65.33,29.22C109.52,43.14,110.05,45.27,120.68,50.52Z"/><path class="cls-11" d="M298.05,62.11c-5.68-12.3-17.07-32.82-40.93-42.24-13.93-5.41-23.43-5.7-33.06-3.94C246.1,14.75,280.67,26,298.05,62.11Z"/><path class="cls-11" d="M175.35,197.42c42.75-16.58,65.46-23.5,106.07-10.33C259,175.18,228.92,170.6,179.93,192c-23.16,10.53-66.3,16-92.3-28.26C97,181.77,123.07,217.7,175.35,197.42Z"/><path class="cls-11" d="M317.34,146.72v.05a23.48,23.48,0,0,1,2.89,5.3c8-16.61,3-71.11-12.48-86.51C319.76,81.46,325.86,117.83,317.34,146.72Z"/><path class="cls-11" d="M297.9,145.66c-11.43,1.77-18.92,14.61-16.74,28.69s13.2,24.05,24.63,22.29,18.92-14.62,16.74-28.7S309.32,143.89,297.9,145.66ZM319,168.36c1.66,10.73-4.06,20.53-12.77,21.88s-17.12-6.26-18.78-17,4-20.53,12.76-21.88S317.3,157.62,319,168.36Z"/><path class="cls-11" d="M447,171.09c-47.31-11.35-107.63,42.35-124.71,61.45a45.55,45.55,0,0,1,11.32,1.25c11.29-5.61,33.82-15.19,56.06-10.95-10.49-6.13-26.13-6.34-48.78.33-4.46,1.76-6.26,2.38-6.26,2.38,8.16-9.12,31.82-19.15,54.06-16.68h0c8.58-12,37.29-30,64,3.74h0a69.1,69.1,0,0,1,14.47,31.19c23.5,93.67-91.06,144.77-138.56,129.73,0,0-15.56-1.47-20.52-12.18,5.88-7.06,21.38-12.79,47.57-18-3.31-.41-28.14.54-41.75,5.18a70.7,70.7,0,0,1,1.13-18.4s-1.35,8.11,3.36,13.17c3.89-2.42,15.49-11.84,17.29-23.64-2.48-1.65-12.62-3-18.92,4.62.21-5.45,4.49-16.72,14-20.36-7.41-1.43-12.76,1.53-13.72,3.38s-9.68,26.11-7.68,43.5a73.39,73.39,0,0,1-21.24,9.4c12.76,22.2,29.17,34.28,47.36,38.53-16.64-6.44-19.25-17.3-19.25-17.3C367,399,460.79,364.43,476.4,286.6s-37.09-95.54-41.88-97.41C488.65,193,513.93,288,446.83,352.8a267.76,267.76,0,0,0,23.07-25.19C524.23,260.2,494.32,182.44,447,171.09Z"/><path class="cls-11" d="M507.74,126.16c19.85,30.62,14.16,41.09-9.15,28.44a139.56,139.56,0,0,1-38.14-31.06c42.46,66.31,77.76,57.36,76.49,33-2.25-17.77-15.59-41.54-27.21-54.27a116.89,116.89,0,0,1-9.64-7.59,98.94,98.94,0,0,1,4.49,10.86c-20.21-19.75-44.34-39.29-88.4-59.87C465.3,79.14,487.88,95.53,507.74,126.16Z"/><path class="cls-11" d="M477.43,154.31c.89,1,3.79,3.83,3.71,5.71h0c.83-1.27-5.84-11-11.23-19.07-9-5.77-11.58-9.33-13.88-15.91s-11.51-8-11.51-8a20.76,20.76,0,0,1,.61,11.75c-1.9-10-9.72-13.59-7.13-19.27-2.46,1.51-2.6,5.57,1.42,11.6s2,14.8,7.45,16.71,7-3.25,13.38,1.73S475.58,152.21,477.43,154.31Z"/><path class="cls-11" d="M373.6,35.62c17.92-10.87,59.72-15.44,111.68,41.09,0,0,5.59,5.26,18.72,17.75C435.89,7,370.33,10.6,363,36.29c20,7.62,21.92,18.1,25.08,28.85a97.26,97.26,0,0,1,10.31,5s-8.05-10.44-9.31-16.85S385.38,40.09,373.6,35.62Z"/></g></g></svg>